<svg xmlns="http://www.w3.org/2000/svg" viewBox="0 0 64 64" fill="none" role="img" aria-label="Cupid">
  <ellipse cx="32" cy="57" rx="18" ry="2.8" fill="#000" opacity=".07"/>
  <g transform="translate(5.5 6.5) scale(2.19)">
    <path
      fill="#e64980"
      d="M12 21.35l-1.45-1.32C5.4 15.36 2 12.28 2 8.5 2 5.42 4.42 3 7.5 3c1.74 0 3.41.81 4.5 2.09C13.09 3.81 14.76 3 16.5 3 19.58 3 22 5.42 22 8.5c0 3.78-3.4 6.86-8.55 11.54L12 21.35z"
    />
    <g stroke="#343a40" stroke-width="1.6" stroke-linecap="round" stroke-linejoin="round">
      <line x1="3" y1="19" x2="21" y2="5.5" />
      <path d="M21 5.5l-3.4.2 1.1 3.2z" fill="#343a40" />
      <path d="M3 19l3.4-.2-1.1-3.2z" fill="#343a40" />
    </g>
  </g>
</svg>
