<svg xmlns="http://www.w3.org/2000/svg" viewBox="0 0 64 64" fill="none" role="img" aria-label="Nutreek">
  <defs>
    <linearGradient id="ntLeaf" x1="0" y1="0" x2="1" y2="1">
      <stop offset="0" stop-color="#96f2c8"/>
      <stop offset=".55" stop-color="#12b886"/>
      <stop offset="1" stop-color="#0b8f6a"/>
    </linearGradient>
    <linearGradient id="ntSprout" x1="0" y1="1" x2="1" y2="0">
      <stop offset="0" stop-color="#63e6be"/>
      <stop offset="1" stop-color="#38d9a9"/>
    </linearGradient>
  </defs>
  <ellipse cx="32" cy="56.5" rx="19" ry="3" fill="#000" opacity=".07"/>
  <!-- main leaf -->
  <path fill="url(#ntLeaf)"
        d="M46.5 7.5C31 8.5 18.5 15 13.8 26.2c-3.5 8.3-1.9 17.6 3 23.5 1.2 1.4 3.3 1.5 4.6.2C33.5 38 41.5 26 46.9 10.4c.5-1.5-.7-3-2.4-2.9z"/>
  <!-- central vein -->
  <path stroke="#eafff5" stroke-width="2.4" stroke-linecap="round" fill="none" opacity=".9"
        d="M18.5 47.5C24 36.5 32.5 24.5 42 13.5"/>
  <!-- side veins -->
  <g stroke="#eafff5" stroke-width="1.9" stroke-linecap="round" fill="none" opacity=".7">
    <path d="M24.5 37.5c-3.4-1.2-6.3-3.4-8.3-6.2"/>
    <path d="M30.5 29.5c-2.6-2.4-4.4-5.5-5.2-8.9"/>
    <path d="M36.5 22c-1.5-2.6-2.2-5.6-2-8.6"/>
  </g>
  <!-- small sprout leaf -->
  <path fill="url(#ntSprout)"
        d="M47.5 33.5c-7.6 1.7-12.4 6.2-13.4 12.6-.2 1.4 1 2.6 2.4 2.4 6.4-.9 11-5.6 12.9-12.9.3-1.2-.7-2.4-1.9-2.1z"/>
  <path stroke="#08453a" stroke-width="1.8" stroke-linecap="round" fill="none" opacity=".55"
        d="M37 46c2.6-4.2 6-7.6 10-10"/>
</svg>
