<svg xmlns="http://www.w3.org/2000/svg" viewBox="0 0 64 64" fill="none" role="img" aria-label="Nutreek">
  <defs>
    <linearGradient id="ntLeaf" x1="0" y1="0" x2="1" y2="1">
      <stop offset="0" stop-color="#4fae52"/>
      <stop offset=".55" stop-color="#2f7d32"/>
      <stop offset="1" stop-color="#1f5c22"/>
    </linearGradient>
  </defs>
  <ellipse cx="32" cy="56.5" rx="18" ry="2.9" fill="#000" opacity=".07"/>
  <!-- leaf body -->
  <path fill="url(#ntLeaf)"
        d="M47.5 8.2C31.6 9 18.7 15.4 13.9 26.6c-3.6 8.4-2 17.7 3 23.7 1.2 1.5 3.4 1.5 4.7.1C33.7 38.6 41.8 26.4 47.9 11c.6-1.5-.7-2.9-2.4-2.8z"/>
  <!-- central vein -->
  <path stroke="#d8ead4" stroke-width="2.4" stroke-linecap="round" fill="none" opacity=".92"
        d="M18.7 47.8C24.3 36.7 32.9 24.7 42.5 13.8"/>
  <!-- side veins -->
  <g stroke="#d8ead4" stroke-width="1.9" stroke-linecap="round" fill="none" opacity=".72">
    <path d="M24.4 37.8c-3.4-1.2-6.4-3.4-8.4-6.3"/>
    <path d="M30.6 29.6c-2.7-2.4-4.5-5.6-5.3-9"/>
    <path d="M36.7 22c-1.6-2.6-2.3-5.7-2.1-8.7"/>
  </g>
</svg>
